<?xml version="1.0" ?><svg viewBox="0 0 64 64" xmlns="http://www.w3.org/2000/svg"><defs><style>.cls-1{fill:#d2ddff;}.cls-2{fill:none;}.cls-10,.cls-2,.cls-4,.cls-5,.cls-6,.cls-7,.cls-8,.cls-9{stroke:#4c241d;stroke-linecap:round;stroke-linejoin:round;stroke-width:2px;}.cls-3{fill:#4c241d;}.cls-4{fill:#c1dbdc;}.cls-5{fill:#e66353;}.cls-6{fill:#fff;}.cls-7{fill:#e2e2e2;}.cls-8{fill:#bd53b5;}.cls-9{fill:#ffce56;}.cls-10{fill:#ffded5;}</style></defs><g id="negative-imac"><circle class="cls-1" cx="23.5" cy="25.5" r="21.5"/><circle class="cls-2" cx="48" cy="9" r="2"/><circle class="cls-3" cx="26.1" cy="9.52" r="1.07"/><line class="cls-2" x1="9.55" x2="12.55" y1="6.05" y2="9.05"/><line class="cls-2" x1="12.55" x2="9.55" y1="6.05" y2="9.05"/><path class="cls-4" d="M6.58,16H61.42a.58.58,0,0,1,.58.58V47a0,0,0,0,1,0,0H6a0,0,0,0,1,0,0V16.58A.58.58,0,0,1,6.58,16Z"/><rect class="cls-5" height="23" rx="2.3" width="24" x="34" y="20"/><path class="cls-6" d="M6,47H62a0,0,0,0,1,0,0v6.42a.58.58,0,0,1-.58.58H6.58A.58.58,0,0,1,6,53.42V47a0,0,0,0,1,0,0Z"/><line class="cls-2" x1="24" x2="44" y1="62" y2="62"/><rect class="cls-7" height="8" width="14" x="27" y="54"/><circle class="cls-8" cx="18" cy="29" r="8"/><path class="cls-9" d="M23.93,34.35A5,5,0,0,0,19,30H17a5,5,0,0,0-4.93,4.35,8,8,0,0,0,11.86,0Z"/><ellipse class="cls-10" cx="18" cy="27.5" rx="4" ry="4.5"/><line class="cls-2" x1="13" x2="23" y1="40" y2="40"/><line class="cls-2" x1="15" x2="21" y1="43" y2="43"/><polygon class="cls-6" points="53.67 26.61 50.84 23.78 46.09 28.53 41.34 23.78 38.51 26.61 43.26 31.36 38.51 36.1 41.34 38.93 46.09 34.18 50.84 38.93 53.67 36.1 48.92 31.36 53.67 26.61"/></g></svg>